<?xml version="1.0" encoding="iso-8859-1"?>
<!DOCTYPE svg PUBLIC "-//W3C//DTD SVG 1.1//EN" "http://www.w3.org/Graphics/SVG/1.1/DTD/svg11.dtd">
<svg fill="#000000" version="1.1" id="Capa_1" xmlns="http://www.w3.org/2000/svg" xmlns:xlink="http://www.w3.org/1999/xlink" 
	 width="800px" height="800px" viewBox="0 0 60.731 60.73"
	 xml:space="preserve">
<g>
	<g>
		<path d="M54.892,6.423H5.84C2.621,6.423,0,9.042,0,12.263v28.03c0,3.221,2.621,5.839,5.84,5.839h49.052
			c3.218,0,5.839-2.618,5.839-5.839v-28.03C60.731,9.042,58.11,6.423,54.892,6.423z M58.395,40.293c0,1.932-1.571,3.504-3.503,3.504
			H5.84c-1.932,0-3.504-1.572-3.504-3.504v-28.03c0-1.932,1.572-3.504,3.504-3.504h49.052c1.932,0,3.503,1.572,3.503,3.504V40.293z"
			/>
		<polygon points="35.038,47.3 25.694,47.3 25.694,50.537 16.351,52.424 16.351,54.308 44.38,54.308 44.38,52.424 35.038,50.537 		
			"/>
		<path d="M29.985,20.768v0.076c0,0.216,0.171,0.383,0.381,0.383s0.381-0.167,0.381-0.383v-0.076c1.485-0.192,2.65-1.411,2.65-2.953
			c0-1.674-1.357-3.034-3.031-3.034c-1.674,0-3.032,1.359-3.032,3.034C27.334,19.353,28.5,20.576,29.985,20.768z"/>
		<path d="M15.836,28.676c-1.674,0-3.032,1.36-3.032,3.035c0,1.673,1.36,3.029,3.032,3.029c1.393,0,2.516-0.958,2.871-2.235
			c0.047-0.05,0.091-0.103,0.106-0.173c0.014-0.064-0.017-0.121-0.035-0.178c0.023-0.148,0.089-0.287,0.089-0.438
			C18.869,30.036,17.512,28.676,15.836,28.676z"/>
		<path d="M44.896,28.676c-1.677,0-3.034,1.36-3.034,3.035c0,0.154,0.066,0.292,0.09,0.443c-0.017,0.055-0.048,0.113-0.034,0.173
			c0.016,0.071,0.059,0.123,0.104,0.171c0.355,1.28,1.479,2.238,2.869,2.238c1.675,0,3.034-1.357,3.034-3.029
			C47.925,30.034,46.571,28.676,44.896,28.676z"/>
		<path d="M24.451,23.472c-0.145-0.159-0.382-0.149-0.535-0.014l-0.54,0.517c-0.149,0.145-0.159,0.388-0.011,0.535
			c0.075,0.079,0.175,0.119,0.273,0.119c0.096,0,0.189-0.036,0.261-0.103l0.537-0.517C24.589,23.864,24.596,23.622,24.451,23.472z"
			/>
		<path d="M25.526,21.917l-0.535,0.521c-0.153,0.145-0.16,0.383-0.013,0.535c0.075,0.075,0.176,0.116,0.273,0.116
			c0.096,0,0.192-0.039,0.261-0.107l0.538-0.518c0.151-0.145,0.157-0.383,0.012-0.535C25.919,21.777,25.676,21.77,25.526,21.917z"/>
		<path d="M26.867,21.543c0.093,0,0.189-0.038,0.261-0.108l0.535-0.513c0.15-0.145,0.157-0.388,0.01-0.537
			c-0.143-0.145-0.388-0.152-0.535-0.009l-0.538,0.516c-0.149,0.145-0.157,0.388-0.012,0.535
			C26.666,21.503,26.766,21.543,26.867,21.543z"/>
		<path d="M22.289,26.063l0.537-0.517c0.152-0.145,0.156-0.388,0.014-0.535c-0.145-0.151-0.388-0.151-0.535-0.009l-0.537,0.515
			c-0.149,0.145-0.156,0.386-0.011,0.535c0.075,0.078,0.176,0.118,0.273,0.118C22.121,26.171,22.217,26.133,22.289,26.063z"/>
		<path d="M19.612,28.092c-0.145-0.145-0.388-0.149-0.535-0.009l-0.537,0.521c-0.149,0.145-0.156,0.383-0.009,0.535
			c0.072,0.074,0.172,0.118,0.272,0.118c0.096,0,0.189-0.042,0.263-0.109L19.6,28.63C19.75,28.485,19.756,28.249,19.612,28.092z"/>
		<path d="M20.688,26.545l-0.538,0.515c-0.149,0.145-0.156,0.388-0.011,0.535c0.074,0.078,0.174,0.118,0.276,0.118
			c0.095,0,0.188-0.04,0.261-0.108l0.537-0.516c0.152-0.145,0.156-0.388,0.014-0.535C21.078,26.407,20.838,26.399,20.688,26.545z"/>
		<path d="M40.32,27.713c0.101,0,0.201-0.04,0.271-0.118c0.145-0.147,0.14-0.393-0.011-0.535l-0.539-0.519
			c-0.144-0.145-0.388-0.143-0.533,0.012c-0.146,0.147-0.137,0.393,0.014,0.535l0.538,0.516
			C40.128,27.68,40.224,27.713,40.32,27.713z"/>
		<path d="M35.475,23.087c0.101,0,0.201-0.042,0.278-0.117c0.146-0.149,0.142-0.392-0.016-0.535l-0.536-0.521
			c-0.144-0.145-0.388-0.139-0.534,0.009c-0.146,0.153-0.139,0.394,0.01,0.536l0.538,0.518
			C35.289,23.048,35.384,23.087,35.475,23.087z"/>
		<path d="M33.053,20.385c-0.146,0.149-0.142,0.393,0.009,0.537l0.536,0.513c0.073,0.071,0.169,0.108,0.262,0.108
			c0.099,0,0.201-0.04,0.274-0.118c0.146-0.147,0.142-0.392-0.014-0.535l-0.534-0.516C33.445,20.229,33.201,20.235,33.053,20.385z"
			/>
		<path d="M37.353,23.979l-0.536-0.519c-0.146-0.147-0.393-0.145-0.536,0.007c-0.144,0.151-0.14,0.395,0.011,0.537l0.539,0.517
			c0.068,0.067,0.162,0.105,0.258,0.105c0.098,0,0.198-0.038,0.273-0.112C37.51,24.363,37.505,24.12,37.353,23.979z"/>
		<path d="M38.429,25c-0.148-0.143-0.39-0.145-0.536,0.014c-0.144,0.149-0.137,0.39,0.014,0.537l0.538,0.515
			c0.075,0.065,0.165,0.105,0.261,0.105c0.1,0,0.2-0.04,0.273-0.122c0.144-0.147,0.139-0.388-0.009-0.535L38.429,25z"/>
		<path d="M42.205,29.144c0.144-0.152,0.139-0.392-0.01-0.535l-0.538-0.519c-0.146-0.145-0.39-0.143-0.533,0.01
			c-0.146,0.148-0.142,0.392,0.014,0.534l0.533,0.521c0.073,0.065,0.169,0.105,0.263,0.105
			C42.034,29.256,42.133,29.216,42.205,29.144z"/>
		<path d="M36.25,33.126l-0.745,0.155c-0.203,0.045-0.336,0.241-0.295,0.446c0.037,0.179,0.194,0.306,0.37,0.306
			c0.027,0,0.048-0.009,0.077-0.014l0.744-0.15c0.202-0.046,0.337-0.242,0.294-0.447C36.652,33.217,36.465,33.082,36.25,33.126z"/>
		<path d="M20.759,32.35l-0.746-0.15c-0.212-0.05-0.404,0.082-0.448,0.295c-0.044,0.203,0.086,0.403,0.292,0.444l0.745,0.155
			c0.028,0.005,0.054,0.009,0.078,0.009c0.178,0,0.334-0.12,0.372-0.303C21.092,32.597,20.962,32.394,20.759,32.35z"/>
		<path d="M40.722,32.195l-0.742,0.15c-0.207,0.045-0.34,0.241-0.294,0.447c0.034,0.176,0.196,0.301,0.369,0.301
			c0.028,0,0.051-0.002,0.078-0.007l0.746-0.153c0.203-0.045,0.335-0.244,0.294-0.444C41.127,32.281,40.931,32.145,40.722,32.195z"
			/>
		<path d="M38.482,32.66l-0.741,0.15c-0.208,0.046-0.34,0.242-0.292,0.449c0.036,0.181,0.193,0.304,0.367,0.304
			c0.027,0,0.05-0.005,0.077-0.009l0.744-0.157c0.205-0.048,0.337-0.244,0.294-0.445C38.892,32.747,38.692,32.619,38.482,32.66z"/>
		<path d="M34.015,33.594l-0.748,0.157c-0.027,0.004-0.036,0.031-0.062,0.041c-0.362-1.079-1.298-1.853-2.459-2.002v-0.33
			c0-0.212-0.171-0.377-0.381-0.377s-0.381,0.165-0.381,0.377v0.33c-1.164,0.149-2.098,0.925-2.459,2.004
			c-0.026-0.012-0.038-0.039-0.064-0.043l-0.745-0.153c-0.212-0.053-0.404,0.089-0.448,0.29c-0.042,0.21,0.091,0.41,0.294,0.449
			l0.745,0.152c0.026,0.005,0.049,0.01,0.075,0.01c-0.007,0.082-0.049,0.15-0.049,0.241c0,1.673,1.357,3.034,3.032,3.034
			c1.674,0,3.031-1.361,3.031-3.034c0-0.086-0.043-0.154-0.048-0.241c0.025,0,0.048-0.005,0.078-0.01l0.741-0.154
			c0.203-0.046,0.34-0.247,0.294-0.45C34.417,33.68,34.225,33.541,34.015,33.594z"/>
		<path d="M22.991,32.815l-0.745-0.15c-0.221-0.046-0.408,0.091-0.448,0.292c-0.044,0.207,0.091,0.408,0.294,0.447l0.745,0.154
			c0.026,0.005,0.051,0.01,0.078,0.01c0.178,0,0.334-0.123,0.372-0.304C23.328,33.058,23.197,32.856,22.991,32.815z"/>
		<path d="M25.227,33.285l-0.743-0.159c-0.219-0.044-0.406,0.091-0.448,0.296c-0.042,0.205,0.089,0.406,0.292,0.447l0.745,0.155
			c0.026,0.009,0.054,0.009,0.08,0.009c0.178,0,0.334-0.118,0.371-0.306C25.565,33.527,25.433,33.326,25.227,33.285z"/>
		<path d="M30.366,28.805c-0.208,0-0.381,0.168-0.381,0.381v0.754c0,0.211,0.171,0.379,0.381,0.379s0.381-0.167,0.381-0.379v-0.754
			C30.747,28.973,30.573,28.805,30.366,28.805z"/>
		<path d="M30.747,24.638c0-0.212-0.171-0.381-0.381-0.381s-0.381,0.169-0.381,0.381v0.755c0,0.212,0.171,0.381,0.381,0.381
			s0.381-0.169,0.381-0.381V24.638z"/>
		<path d="M30.747,22.363c0-0.215-0.171-0.383-0.381-0.383s-0.381,0.167-0.381,0.383v0.752c0,0.214,0.171,0.383,0.381,0.383
			s0.381-0.169,0.381-0.383V22.363z"/>
		<path d="M30.747,26.911c0-0.21-0.171-0.379-0.381-0.379s-0.381,0.169-0.381,0.379v0.756c0,0.211,0.171,0.379,0.381,0.379
			s0.381-0.168,0.381-0.379V26.911z"/>
	</g>
</g>
</svg>
